<svg xmlns="http://www.w3.org/2000/svg" xmlns:xlink="http://www.w3.org/1999/xlink" width="1080" height="1920" viewBox="0 0 1080 1920">
  <defs>
    <clipPath id="clip-path">
      <rect id="Background" width="1080" height="1920" fill="#fff" stroke="#707070" stroke-width="1"/>
    </clipPath>
  </defs>
  <g id="Mask_Group_2" data-name="Mask Group 2" clip-path="url(#clip-path)">
    <g id="Group_56" data-name="Group 56">
      <path id="Path_57" data-name="Path 57" d="M246.309,543.712a80.913,80.913,0,0,1-40.47-10.812L40.467,437.423A81.155,81.155,0,0,1,0,367.33V176.375a81.163,81.163,0,0,1,40.467-70.093L205.839,10.8a81.159,81.159,0,0,1,80.937,0l165.372,95.476a81.163,81.163,0,0,1,40.47,70.093V367.33a81.155,81.155,0,0,1-40.47,70.093L286.776,532.9a80.911,80.911,0,0,1-40.467,10.812m0-540.984a78.2,78.2,0,0,0-39.1,10.443L41.834,108.647a78.43,78.43,0,0,0-39.1,67.728V367.33a78.424,78.424,0,0,0,39.1,67.728l165.372,95.477a78.419,78.419,0,0,0,78.2,0l165.372-95.477a78.42,78.42,0,0,0,39.1-67.728V176.375a78.427,78.427,0,0,0-39.1-67.728L285.409,13.171a78.2,78.2,0,0,0-39.1-10.443" transform="translate(-231.006 1457.032)" fill="#c40010" stroke="#c40d12" stroke-width="3"/>
      <path id="Path_58" data-name="Path 58" d="M284.531,274.93,179.991,335.286a50.3,50.3,0,0,1-50.3,0L25.15,274.93A50.3,50.3,0,0,1,0,231.368V110.656A50.3,50.3,0,0,1,25.15,67.094L129.69,6.737a50.3,50.3,0,0,1,50.3,0L284.531,67.094a50.3,50.3,0,0,1,25.15,43.562V231.368a50.3,50.3,0,0,1-25.15,43.562" transform="translate(106.771 1710.087)" fill="#c40010"/>
      <path id="Path_59" data-name="Path 59" d="M202.566,195.73,128.141,238.7a35.81,35.81,0,0,1-35.81,0L17.9,195.73A35.81,35.81,0,0,1,0,164.717V78.779A35.811,35.811,0,0,1,17.9,47.766L92.33,4.8a35.811,35.811,0,0,1,35.81,0l74.426,42.97a35.811,35.811,0,0,1,17.9,31.013v85.939a35.81,35.81,0,0,1-17.9,31.013" transform="translate(66.159 1335.28)" fill="none" stroke="#064264" stroke-width="5"/>
      <path id="Path_60" data-name="Path 60" d="M73.808,71.316,46.69,86.973a13.048,13.048,0,0,1-13.048,0L6.524,71.316A13.048,13.048,0,0,1,0,60.016V28.7A13.048,13.048,0,0,1,6.524,17.4L33.642,1.746a13.048,13.048,0,0,1,13.048,0L73.808,17.4a13.048,13.048,0,0,1,6.524,11.3V60.016a13.048,13.048,0,0,1-6.524,11.3" transform="translate(362.286 1554.806)" fill="none" stroke="#064264" stroke-width="4"/>
      <path id="Path_62" data-name="Path 62" d="M236.367,228.39,149.523,278.53a41.785,41.785,0,0,1-41.786,0L20.893,228.39A41.786,41.786,0,0,1,0,192.2V91.924A41.786,41.786,0,0,1,20.893,55.736L107.737,5.6a41.786,41.786,0,0,1,41.786,0l86.844,50.14a41.786,41.786,0,0,1,20.893,36.188V192.2a41.786,41.786,0,0,1-20.893,36.188" transform="translate(905.619 1250.757)" fill="none" stroke="#064264" stroke-width="5"/>
      <path id="Path_64" data-name="Path 64" d="M145.987,141.06,92.35,172.028a25.808,25.808,0,0,1-25.808,0L12.9,141.06A25.808,25.808,0,0,1,0,118.71V56.774A25.808,25.808,0,0,1,12.9,34.424L66.542,3.456a25.808,25.808,0,0,1,25.808,0l53.638,30.968a25.808,25.808,0,0,1,12.9,22.351V118.71a25.808,25.808,0,0,1-12.9,22.351" transform="translate(676.619 1468.042)" fill="none" stroke="#b81e22" stroke-width="5"/>
      <path id="Path_65" data-name="Path 65" d="M114.4,110.537,72.367,134.8a20.224,20.224,0,0,1-20.224,0L10.112,110.537A20.224,20.224,0,0,1,0,93.023V44.489A20.224,20.224,0,0,1,10.112,26.975L52.143,2.708a20.224,20.224,0,0,1,20.224,0L114.4,26.975A20.224,20.224,0,0,1,124.51,44.489V93.023A20.224,20.224,0,0,1,114.4,110.537" transform="translate(540 1622.344)" fill="none" stroke="#064264" stroke-width="5"/>
      <path id="Path_66" data-name="Path 66" d="M114.4,110.537,72.367,134.8a20.224,20.224,0,0,1-20.224,0L10.112,110.537A20.224,20.224,0,0,1,0,93.023V44.489A20.224,20.224,0,0,1,10.112,26.975L52.143,2.708a20.224,20.224,0,0,1,20.224,0L114.4,26.975A20.224,20.224,0,0,1,124.51,44.489V93.023A20.224,20.224,0,0,1,114.4,110.537" transform="translate(766 1753.526)" fill="none" stroke="#d31e26" stroke-width="5"/>
      <path id="Path_63" data-name="Path 63" d="M305.606,295.294,193.322,360.12a54.025,54.025,0,0,1-54.026,0L27.013,295.294A54.026,54.026,0,0,1,0,248.505V118.852A54.026,54.026,0,0,1,27.013,72.063L139.3,7.236a54.026,54.026,0,0,1,54.026,0L305.606,72.063a54.026,54.026,0,0,1,27.013,46.788V248.505a54.026,54.026,0,0,1-27.013,46.788" transform="translate(855.453 1753.526)" fill="none" stroke="#064264" stroke-width="5"/>
      <path id="Path_61" data-name="Path 61" d="M75.019,72.487,47.456,88.4a13.262,13.262,0,0,1-13.262,0L6.631,72.487A13.262,13.262,0,0,1,0,61V29.174A13.262,13.262,0,0,1,6.631,17.689L34.194,1.775a13.262,13.262,0,0,1,13.262,0L75.019,17.689A13.262,13.262,0,0,1,81.65,29.174V61a13.262,13.262,0,0,1-6.631,11.485" transform="translate(1039.175 1656.483)" fill="#064264"/>
      <path id="Path_67" data-name="Path 67" d="M75.019,72.487,47.456,88.4a13.262,13.262,0,0,1-13.262,0L6.631,72.487A13.262,13.262,0,0,1,0,61V29.174A13.262,13.262,0,0,1,6.631,17.689L34.194,1.775a13.262,13.262,0,0,1,13.262,0L75.019,17.689A13.262,13.262,0,0,1,81.65,29.174V61a13.262,13.262,0,0,1-6.631,11.485" transform="translate(855.453 1683.798)" fill="#b81e22"/>
    </g>
  </g>
</svg>
